# xmcd
# Track frame offsets:
# 150
# 16064
# 29191
# 41650
# 53478
# 65447
# 79820
# 94230
# 108139
# 122254
# 137098
# 150424
#
# Disc length: 2185 seconds
# Revision: 0
# Processed by: cddbd v1.5.2PL0 Copyright (c) Steve Scherf et al.
# Submitted via: VisiTrax 2.9.10.228 - For more info visit www.synapsa.com
#
DISCID=8e08870c
DTITLE=Joe Paul Nichols - Tree of life
DYEAR=2006
DGENRE=
TTITLE0=I won't take less than your love
TTITLE1=Falling leaves
TTITLE2=Tree of life
TTITLE3=Whats it gonna take
TTITLE4=Dust on the bible
TTITLE5=Will there be any stars
TTITLE6=Bless his name
TTITLE7=What inthe world
TTITLE8=Precious memories
TTITLE9=Where could I go
TTITLE10=The price he paid for me
TTITLE11=Satisfied mind
EXTD=
EXTT0=
EXTT1=
EXTT2=
EXTT3=
EXTT4=
EXTT5=
EXTT6=
EXTT7=
EXTT8=
EXTT9=
EXTT10=
EXTT11=
PLAYORDER=
